<svg id="visual" viewBox="0 0 960 540" width="960" height="540" xmlns="http://www.w3.org/2000/svg" xmlns:xlink="http://www.w3.org/1999/xlink" version="1.1"><rect x="0" y="0" width="960" height="540" fill="#002233"></rect><path d="M0 402L22.8 401.8C45.7 401.7 91.3 401.3 137 409C182.7 416.7 228.3 432.3 274 424.3C319.7 416.3 365.3 384.7 411.2 383.2C457 381.7 503 410.3 548.8 416.2C594.7 422 640.3 405 686 405.2C731.7 405.3 777.3 422.7 823 429.3C868.7 436 914.3 432 937.2 430L960 428L960 541L937.2 541C914.3 541 868.7 541 823 541C777.3 541 731.7 541 686 541C640.3 541 594.7 541 548.8 541C503 541 457 541 411.2 541C365.3 541 319.7 541 274 541C228.3 541 182.7 541 137 541C91.3 541 45.7 541 22.8 541L0 541Z" fill="#0066FF" stroke-linecap="round" stroke-linejoin="miter"></path></svg>